<svg xmlns="http://www.w3.org/2000/svg" width="32" height="32" viewBox="0 0 32 32" fill="none">
  <path fill-rule="evenodd" clip-rule="evenodd" d="M16 3C8.82 3 3 8.82 3 16C3 21.59 6.58 26.3 11.76 27.97C12.26 28.07 12.48 27.76 12.48 27.49C12.48 27.25 12.47 26.43 12.47 25.38C9 26.04 8.35 24.14 8.35 24.14C7.84 22.68 7.09 22.37 7.09 22.37C6.08 21.61 7.16 21.61 7.16 21.61C8.27 21.69 8.87 22.81 8.87 22.81C9.86 24.68 11.64 24.19 12.5 23.92C12.6 23.14 12.9 22.65 13.23 22.37C10.44 22.1 7.53 21.02 7.53 16.11C7.53 14.67 8 13.5 8.88 12.58C8.77 12.33 8.35 11.07 9 9.32C9 9.32 9.94 8.99 12.48 10.82C13.57 10.55 14.73 10.42 15.89 10.42C17.05 10.42 18.21 10.55 19.3 10.82C21.84 8.99 22.78 9.32 22.78 9.32C23.42 11.07 23 12.33 22.9 12.58C23.78 13.5 24.25 14.67 24.25 16.11C24.25 21.02 21.34 22.09 18.54 22.36C18.96 22.7 19.33 23.35 19.33 24.37C19.33 25.82 19.32 27.15 19.32 27.49C19.32 27.76 19.54 28.07 20.04 27.97C25.22 26.3 28.8 21.59 28.8 16C28.8 8.82 22.98 3 16 3Z" fill="#24292E"/>
</svg> 